<?xml version="1.0" encoding="UTF-8"?>
<svg width="390px" height="695px" viewBox="0 0 390 695" version="1.1" xmlns="http://www.w3.org/2000/svg" xmlns:xlink="http://www.w3.org/1999/xlink">
    <title>Group 5</title>
    <g id="Page-1" stroke="none" stroke-width="1" fill="none" fill-rule="evenodd">
        <g id="iPhone-12" transform="translate(0.000000, -149.000000)">
            <g id="Group-5" transform="translate(0.000000, 149.000000)">
                <rect id="Rectangle" fill="#000000" x="0" y="0" width="390" height="612"></rect>
                <g id="Group-3" transform="translate(0.000000, 9.000000)">
                    <rect id="Rectangle" fill="#171717" x="0" y="221" width="390" height="465" rx="22"></rect>
                    <rect id="Rectangle" fill="#2A2A2A" x="7" y="0" width="121" height="133" rx="19"></rect>
                    <rect id="Rectangle-Copy" fill="#2A2A2A" x="135" y="0" width="121" height="133" rx="19"></rect>
                    <rect id="Rectangle-Copy-2" fill="#2A2A2A" x="263" y="0" width="121" height="133" rx="19"></rect>
                    <rect id="Rectangle-Copy-3" fill="#2A2A2A" x="16" y="154" width="350" height="15" rx="7.5"></rect>
                    <rect id="Rectangle-Copy-4" fill="#2A2A2A" x="16" y="175" width="312" height="15" rx="7.5"></rect>
                    <g id="Group" transform="translate(24.000000, 249.000000)">
                        <rect id="Rectangle" fill="#2A2A2A" x="0" y="0" width="341" height="70" rx="16"></rect>
                        <circle id="Oval" fill="#6A6A6A" cx="35" cy="35" r="17"></circle>
                        <rect id="Rectangle" fill="#6A6A6A" x="64" y="21" width="36" height="17" rx="4"></rect>
                        <rect id="Rectangle-Copy-11" fill="#6A6A6A" x="193" y="21" width="129" height="17" rx="4"></rect>
                        <rect id="Rectangle-Copy-10" fill="#6A6A6A" x="64" y="44" width="51" height="8" rx="2"></rect>
                        <rect id="Rectangle-Copy-12" fill="#6A6A6A" x="294" y="44" width="28" height="8" rx="2"></rect>
                    </g>
                    <g id="Group-Copy" transform="translate(24.000000, 340.000000)">
                        <rect id="Rectangle" fill="#2A2A2A" x="0" y="0" width="341" height="70" rx="16"></rect>
                        <circle id="Oval" fill="#6A6A6A" cx="35" cy="35" r="17"></circle>
                        <rect id="Rectangle" fill="#6A6A6A" x="64" y="21" width="36" height="17" rx="4"></rect>
                        <rect id="Rectangle-Copy-11" fill="#6A6A6A" x="193" y="21" width="129" height="17" rx="4"></rect>
                        <rect id="Rectangle-Copy-10" fill="#6A6A6A" x="64" y="44" width="51" height="8" rx="2"></rect>
                        <rect id="Rectangle-Copy-12" fill="#6A6A6A" x="294" y="44" width="28" height="8" rx="2"></rect>
                    </g>
                    <g id="Group-Copy-2" transform="translate(24.000000, 431.000000)">
                        <rect id="Rectangle" fill="#2A2A2A" x="0" y="0" width="341" height="70" rx="16"></rect>
                        <circle id="Oval" fill="#6A6A6A" cx="35" cy="35" r="17"></circle>
                        <rect id="Rectangle" fill="#6A6A6A" x="64" y="21" width="36" height="17" rx="4"></rect>
                        <rect id="Rectangle-Copy-11" fill="#6A6A6A" x="193" y="21" width="129" height="17" rx="4"></rect>
                        <rect id="Rectangle-Copy-10" fill="#6A6A6A" x="64" y="44" width="51" height="8" rx="2"></rect>
                        <rect id="Rectangle-Copy-12" fill="#6A6A6A" x="294" y="44" width="28" height="8" rx="2"></rect>
                    </g>
                    <g id="Group-Copy-3" transform="translate(25.000000, 522.000000)">
                        <rect id="Rectangle" fill="#2A2A2A" x="0" y="0" width="341" height="70" rx="16"></rect>
                        <circle id="Oval" fill="#6A6A6A" cx="35" cy="35" r="17"></circle>
                        <rect id="Rectangle" fill="#6A6A6A" x="64" y="21" width="36" height="17" rx="4"></rect>
                        <rect id="Rectangle-Copy-11" fill="#6A6A6A" x="193" y="21" width="129" height="17" rx="4"></rect>
                        <rect id="Rectangle-Copy-10" fill="#6A6A6A" x="64" y="44" width="51" height="8" rx="2"></rect>
                        <rect id="Rectangle-Copy-12" fill="#6A6A6A" x="294" y="44" width="28" height="8" rx="2"></rect>
                    </g>
                </g>
            </g>
        </g>
    </g>
</svg>